<?xml version="1.0" encoding="UTF-8" standalone="no"?>
<!-- Created with Inkscape (http://www.inkscape.org/) -->

<svg
   xmlns:dc="http://purl.org/dc/elements/1.1/"
   xmlns:cc="http://creativecommons.org/ns#"
   xmlns:rdf="http://www.w3.org/1999/02/22-rdf-syntax-ns#"
   xmlns:svg="http://www.w3.org/2000/svg"
   xmlns="http://www.w3.org/2000/svg"
   xmlns:sodipodi="http://sodipodi.sourceforge.net/DTD/sodipodi-0.dtd"
   xmlns:inkscape="http://www.inkscape.org/namespaces/inkscape"
   width="676"
   height="300"
   viewBox="0 0 675.99999 300"
   id="svg2"
   version="1.1"
   inkscape:version="0.91 r13725"
   sodipodi:docname="404.svg">
  <defs
     id="defs4" />
  <sodipodi:namedview
     id="base"
     pagecolor="#ffffff"
     bordercolor="#666666"
     borderopacity="1.0"
     inkscape:pageopacity="0.0"
     inkscape:pageshadow="2"
     inkscape:zoom="0.85946746"
     inkscape:cx="338"
     inkscape:cy="150"
     inkscape:document-units="px"
     inkscape:current-layer="layer1"
     showgrid="false"
     units="px"
     inkscape:window-width="1024"
     inkscape:window-height="561"
     inkscape:window-x="0"
     inkscape:window-y="0"
     inkscape:window-maximized="1">
    <inkscape:grid
       type="xygrid"
       id="grid4144" />
  </sodipodi:namedview>
  <metadata
     id="metadata7">
    <rdf:RDF>
      <cc:Work
         rdf:about="">
        <dc:format>image/svg+xml</dc:format>
        <dc:type
           rdf:resource="http://purl.org/dc/dcmitype/StillImage" />
        <dc:title></dc:title>
      </cc:Work>
    </rdf:RDF>
  </metadata>
  <g
     inkscape:label="Layer 1"
     inkscape:groupmode="layer"
     id="layer1"
     transform="translate(0,-752.36228)">
    <path
       style="font-style:normal;font-variant:normal;font-weight:normal;font-stretch:normal;font-size:medium;line-height:125%;font-family:Blackletter;-inkscape-font-specification:Blackletter;text-align:start;letter-spacing:0px;word-spacing:0px;writing-mode:lr-tb;text-anchor:start;fill:#101010;fill-opacity:1;stroke:none;stroke-width:1px;stroke-linecap:butt;stroke-linejoin:miter;stroke-opacity:1"
       d="m 137.89062,7.4902344 -1.43359,4.5878906 c 3.05857,6.308293 4.58789,14.432707 4.58789,24.373047 0,22.748087 -6.88098,51.039613 -20.64453,84.874998 -15.48399,38.04092 -32.114662,60.3111 -49.892578,66.81055 6.499453,2.67625 12.424854,8.2198 17.777344,16.63086 1.529284,2.48508 5.351618,9.93981 11.46875,22.36523 8.411054,-15.48399 19.116324,-25.80547 32.115234,-30.96679 9.1757,-3.63205 24.0871,-5.44922 44.73242,-5.44922 l 10.60938,0 0,39.85742 c -10.70498,1.72044 -19.59504,6.02057 -26.66797,12.90234 -7.07293,6.88175 -10.60938,15.29398 -10.60938,25.23438 0,5.92593 1.24343,11.08771 3.72852,15.48437 3.05857,5.54367 7.3587,8.31446 12.90234,8.31446 1.52929,0 2.29493,-0.76371 2.29493,-2.29297 0,-0.57347 -1.05154,-1.24315 -3.1543,-2.00782 -4.39669,-1.52926 -6.5957,-5.35161 -6.5957,-11.46875 0,-5.54366 2.00711,-9.94167 6.02148,-13.1914 4.20553,-3.44087 9.36724,-5.16016 15.48437,-5.16016 10.1315,0 19.21151,5.73353 27.24024,17.20313 3.44089,-9.17567 8.8885,-17.01226 16.34375,-23.51172 7.45525,-6.49946 15.67561,-10.2278 24.66016,-11.1836 l 0,-6.88086 C 240.44832,233.6333 234.42697,232.29393 230.79492,230 c -4.779,-3.05856 -7.16797,-8.50617 -7.16797,-16.34375 l 0,-22.93945 c 3.63205,-0.19116 7.26444,-0.28711 10.89649,-0.28711 6.30829,0 10.41652,1.52933 12.32812,4.58789 1.33813,2.10276 2.00782,6.78669 2.00782,14.05078 l 7.16796,0 0,-45.30469 -7.16796,0 c 0,5.73482 -0.38184,9.65309 -1.14649,11.75586 -1.52928,4.01437 -4.68388,6.02149 -9.46289,6.02149 l -14.62305,0 0,-54.19336 c 0,-6.88178 2.10307,-12.42534 6.3086,-16.63086 3.05856,-3.05857 8.21833,-6.30912 15.48242,-9.75 l 0,-6.880862 c -9.36686,-3.058567 -17.87312,-8.889975 -25.51953,-17.492188 -7.45526,-8.60222 -12.04323,-17.776211 -13.76367,-27.525391 -1.52928,9.1757 -6.11726,18.44564 -13.76368,27.8125 -8.02873,9.94034 -16.34309,15.675799 -24.94531,17.205079 l 0,6.880862 c 6.88177,4.01436 11.56374,7.45681 14.04883,10.32422 3.82321,4.39668 5.73633,9.65239 5.73633,15.76953 l 0,54.48047 c -1.33812,0.19116 -3.72904,0.2871 -7.16992,0.2871 -24.46853,0 -39.37798,-1.24147 -44.73047,-3.72656 -3.82321,-1.72044 -5.73438,-5.54473 -5.73438,-11.4707 0,-12.23427 4.96982,-30.01242 14.91016,-53.33398 10.70498,-24.659692 20.54866,-39.761039 29.5332,-45.304692 4.39669,-2.676247 6.97755,-4.39747 7.74219,-5.16211 C 173.73299,57.859911 165.60857,48.208127 157.38867,33.871094 149.16878,19.342907 142.66963,10.548801 137.89062,7.4902344 Z m 349.46485,0 -1.43359,4.5878906 c 3.05856,6.308293 4.58789,14.432707 4.58789,24.373047 0,22.748087 -6.88099,51.039613 -20.64454,84.874998 -15.48399,38.04092 -32.11466,60.3111 -49.89257,66.81055 6.49945,2.67625 12.42485,8.2198 17.77734,16.63086 1.52929,2.48508 5.35162,9.93981 11.46875,22.36523 8.41105,-15.48399 19.11633,-25.80547 32.11523,-30.96679 9.1757,-3.63205 24.08711,-5.44922 44.73243,-5.44922 l 10.60937,0 0,39.85742 c -10.70498,1.72044 -19.59503,6.02057 -26.66797,12.90234 -7.07293,6.88175 -10.60937,15.29398 -10.60937,25.23438 0,5.92593 1.24343,11.08771 3.72851,15.48437 3.05857,5.54367 7.35869,8.31446 12.90235,8.31446 1.52928,0 2.29492,-0.76371 2.29492,-2.29297 0,-0.57347 -1.05153,-1.24315 -3.1543,-2.00782 -4.39668,-1.52926 -6.5957,-5.35161 -6.5957,-11.46875 0,-5.54366 2.00712,-9.94167 6.02148,-13.1914 4.20553,-3.44087 9.36724,-5.16016 15.48438,-5.16016 10.1315,0 19.2115,5.73353 27.24023,17.20313 3.44089,-9.17567 8.88849,-17.01226 16.34375,-23.51172 7.45526,-6.49946 15.67563,-10.2278 24.66016,-11.1836 l 0,-6.88086 C 589.91317,233.6333 583.89181,232.29393 580.25977,230 c -4.77902,-3.05856 -7.16797,-8.50617 -7.16797,-16.34375 l 0,-22.93945 c 3.63204,-0.19116 7.26443,-0.28711 10.89648,-0.28711 6.30829,0 10.41847,1.52933 12.33008,4.58789 1.33812,2.10276 2.00586,6.78669 2.00586,14.05078 l 7.16797,0 0,-45.30469 -7.16797,0 c 0,5.73482 -0.38185,9.65309 -1.14649,11.75586 -1.52928,4.01437 -4.68387,6.02149 -9.46289,6.02149 l -14.62304,0 0,-54.19336 c 0,-6.88178 2.10306,-12.42534 6.30859,-16.63086 3.05857,-3.05857 8.21833,-6.30912 15.48242,-9.75 l 0,-6.880862 c -9.36686,-3.058567 -17.87312,-8.889975 -25.51953,-17.492188 -7.45526,-8.60222 -12.04323,-17.776211 -13.76367,-27.525391 -1.52929,9.1757 -6.11726,18.44564 -13.76367,27.8125 -8.02874,9.94034 -16.3431,15.675799 -24.94532,17.205079 l 0,6.880862 c 6.88178,4.01436 11.5657,7.45681 14.05079,10.32422 3.8232,4.39668 5.73437,9.65239 5.73437,15.76953 l 0,54.48047 c -1.33812,0.19116 -3.72708,0.2871 -7.16797,0.2871 -24.46853,0 -39.37993,-1.24147 -44.73242,-3.72656 -3.82321,-1.72044 -5.73437,-5.54473 -5.73437,-11.4707 0,-12.23427 4.96981,-30.01242 14.91015,-53.33398 10.70498,-24.659692 20.54866,-39.761039 29.53321,-45.304692 4.39668,-2.676247 6.97754,-4.39747 7.74218,-5.16211 C 523.19783,57.859911 515.07342,48.208127 506.85352,33.871094 498.63362,19.342907 492.13448,10.548801 487.35547,7.4902344 Z M 345.97461,47.632812 c -13.19007,28.86522 -39.18663,43.776622 -77.99219,44.732422 l 0,6.88086 c 10.70498,1.529286 16.05664,11.470876 16.05664,29.822266 l 0,65.94922 c 0,24.65969 -6.21324,37.56398 -18.63867,38.71094 l 0,6.88086 c 12.99891,-0.95581 26.18909,2.10282 39.57031,9.17578 13.38123,6.88173 22.84307,15.96176 28.38672,27.24023 6.3083,-13.5724 17.58731,-23.22614 33.83594,-28.96094 9.94034,-3.44086 25.13764,-5.9258 45.5918,-7.45507 l 0,-6.88086 c -11.85195,-1.52928 -17.77735,-14.14573 -17.77735,-37.84961 l 0,-61.65039 c 0,-23.89505 5.54356,-35.555906 16.63086,-34.982426 l 0,-6.88086 C 398.25745,91.218274 385.35315,86.534353 372.92773,78.314453 360.50231,69.9034 351.51826,59.675919 345.97461,47.632812 Z m -23.79883,44.732422 c 13.76355,11.278456 21.98391,18.637236 24.66016,22.078126 6.69061,8.41106 10.03515,18.63853 10.03515,30.68164 l 0,95.48438 c -23.1304,-13.38123 -34.69531,-28.76847 -34.69531,-46.16407 l 0,-102.080076 z"
       transform="translate(0,752.36228)"
       id="404"
       sodipodi:insensitive="true"
       inkscape:connector-curvature="0" />
  </g>
</svg>
