<?xml version="1.0" encoding="UTF-8" standalone="no"?>
<!-- Created with Inkscape (http://www.inkscape.org/) -->

<svg
   xmlns:dc="http://purl.org/dc/elements/1.1/"
   xmlns:cc="http://creativecommons.org/ns#"
   xmlns:rdf="http://www.w3.org/1999/02/22-rdf-syntax-ns#"
   xmlns:svg="http://www.w3.org/2000/svg"
   xmlns="http://www.w3.org/2000/svg"
   xmlns:sodipodi="http://sodipodi.sourceforge.net/DTD/sodipodi-0.dtd"
   xmlns:inkscape="http://www.inkscape.org/namespaces/inkscape"
   width="420"
   height="60"
   viewBox="0 0 420 60.000003"
   id="svg2"
   version="1.1"
   inkscape:version="0.91 r13725"
   sodipodi:docname="SANREMEMBER - Logo.svg"
   inkscape:export-filename="/home/sanremember/Images/Wallpaper/Arch-Space-Emblem.png"
   inkscape:export-xdpi="90"
   inkscape:export-ydpi="90">
  <defs
     id="defs4">
    <clipPath
       clipPathUnits="userSpaceOnUse"
       id="clipPath3351">
      <rect
         style="fill:#0000ff;stroke:none"
         id="rect3353"
         width="1024"
         height="600"
         x="0"
         y="452.36215" />
    </clipPath>
    <linearGradient
       gradientUnits="userSpaceOnUse"
       id="path1082_2_"
       y2="129.3468"
       x2="112.49853"
       y1="6.1372099"
       x1="112.49854"
       gradientTransform="translate(287,-83)">
      <stop
         id="stop193"
         offset="0"
         style="stop-color:#ffffff;stop-opacity:0" />
      <stop
         id="stop195"
         offset="1"
         style="stop-color:#ffffff;stop-opacity:0.27450982;" />
      <midPointStop
         id="midPointStop197"
         style="stop-color:#FFFFFF"
         offset="0" />
      <midPointStop
         id="midPointStop199"
         style="stop-color:#FFFFFF"
         offset="0.5" />
      <midPointStop
         id="midPointStop201"
         style="stop-color:#000000"
         offset="1" />
    </linearGradient>
  </defs>
  <sodipodi:namedview
     id="base"
     pagecolor="#ffffff"
     bordercolor="#666666"
     borderopacity="1.0"
     inkscape:pageopacity="0.0"
     inkscape:pageshadow="2"
     inkscape:zoom="1.3785714"
     inkscape:cx="210"
     inkscape:cy="30.362695"
     inkscape:document-units="px"
     inkscape:current-layer="layer3"
     showgrid="false"
     units="px"
     inkscape:window-width="1024"
     inkscape:window-height="561"
     inkscape:window-x="0"
     inkscape:window-y="0"
     inkscape:window-maximized="1"
     showguides="false">
    <inkscape:grid
       type="xygrid"
       id="grid3347" />
  </sodipodi:namedview>
  <metadata
     id="metadata7">
    <rdf:RDF>
      <cc:Work
         rdf:about="">
        <dc:format>image/svg+xml</dc:format>
        <dc:type
           rdf:resource="http://purl.org/dc/dcmitype/StillImage" />
        <dc:title></dc:title>
      </cc:Work>
    </rdf:RDF>
  </metadata>
  <g
     inkscape:groupmode="layer"
     id="layer3"
     inkscape:label="SANREMEMBER"
     style="display:inline"
     transform="translate(0,-540.00001)">
    <g
       transform="scale(1.0067872,0.99325856)"
       style="font-style:normal;font-variant:normal;font-weight:normal;font-stretch:normal;font-size:9.96422958px;line-height:125%;font-family:'Liberation Sans';-inkscape-font-specification:'Liberation Sans, Normal';text-align:start;letter-spacing:0px;word-spacing:0px;writing-mode:lr-tb;text-anchor:start;fill:#101010;fill-opacity:1;stroke:#101010;stroke-width:2;stroke-linecap:butt;stroke-linejoin:miter;stroke-miterlimit:4;stroke-dasharray:none;stroke-opacity:1"
       id="text4136">
      <path
         d="m 43.298756,594.784 -10.771877,-20.02577 -7.765092,9.575 0,10.45077 -8.086206,0 0,-41.86144 8.086206,0 0,19.96738 15.851298,-19.96738 9.545809,0 -12.202288,15.00473 14.771191,26.85671 -9.429041,0 z"
         style="font-style:normal;font-variant:normal;font-weight:bold;font-stretch:normal;font-size:59.78537369px;font-family:Overpass;-inkscape-font-specification:'Overpass Bold';fill:#101010;fill-opacity:1;stroke:#101010;stroke-width:2;stroke-miterlimit:4;stroke-dasharray:none;stroke-opacity:1"
         id="path4161" />
      <path
         d="m 60.463698,594.784 0,-41.86144 28.579043,0 0,7.67751 -20.492838,0 0,8.78682 12.056328,0 0,7.64832 -12.056328,0 0,10.10046 21.748098,0 0,7.64833 -29.834303,0 z"
         style="font-style:normal;font-variant:normal;font-weight:bold;font-stretch:normal;font-size:59.78537369px;font-family:Overpass;-inkscape-font-specification:'Overpass Bold';fill:#101010;fill-opacity:1;stroke:#101010;stroke-width:2;stroke-miterlimit:4;stroke-dasharray:none;stroke-opacity:1"
         id="path4163" />
      <path
         d="m 98.997237,552.92256 18.361813,0 q 3.82417,0 6.42226,0.96334 2.59809,0.96334 4.17447,2.53971 1.60556,1.57637 2.27698,3.59062 0.70061,2.01426 0.70061,4.14528 0,1.34283 -0.29192,2.59809 -0.26273,1.25526 -0.87576,2.36456 -0.61304,1.08011 -1.57638,2.01425 -0.96333,0.90496 -2.33536,1.57638 1.78071,0.67141 3.00678,1.75152 1.25526,1.05092 2.01425,2.33537 0.78819,1.28445 1.1385,2.71486 0.3503,1.43041 0.3503,2.83163 0,2.2186 -0.75899,4.4372 -0.72981,2.2186 -2.42295,3.99931 -1.66394,1.78072 -4.37881,2.89002 -2.68567,1.1093 -6.59741,1.1093 l -19.208383,0 0,-41.86144 z m 19.617073,34.32988 q 1.63476,0 2.71487,-0.43788 1.0801,-0.46707 1.69314,-1.16768 0.64222,-0.70061 0.90495,-1.57638 0.26273,-0.87576 0.26273,-1.72233 0,-1.02172 -0.32111,-1.98506 -0.29192,-0.99253 -1.1093,-1.75152 -0.81738,-0.759 -2.2186,-1.22607 -1.40122,-0.46707 -3.59063,-0.46707 l -9.86692,0 0,10.33399 11.53087,0 z m -2.2186,-17.86555 q 3.21113,0 4.75831,-1.22607 1.57638,-1.25526 1.57638,-3.26951 0,-0.78819 -0.20435,-1.57637 -0.20434,-0.78819 -0.78819,-1.43041 -0.55464,-0.64223 -1.57637,-1.02173 -1.02172,-0.40869 -2.68567,-0.40869 l -10.39238,0 0,8.93278 9.31227,0 z"
         style="font-style:normal;font-variant:normal;font-weight:bold;font-stretch:normal;font-size:59.78537369px;font-family:Overpass;-inkscape-font-specification:'Overpass Bold';fill:#101010;fill-opacity:1;stroke:#101010;stroke-width:2;stroke-miterlimit:4;stroke-dasharray:none;stroke-opacity:1"
         id="path4165" />
      <path
         d="m 141.61767,594.784 0,-41.86144 28.57905,0 0,7.67751 -20.49284,0 0,8.78682 12.05633,0 0,7.64832 -12.05633,0 0,10.10046 21.7481,0 0,7.64833 -29.83431,0 z"
         style="font-style:normal;font-variant:normal;font-weight:bold;font-stretch:normal;font-size:59.78537369px;font-family:Overpass;-inkscape-font-specification:'Overpass Bold';fill:#101010;fill-opacity:1;stroke:#101010;stroke-width:2;stroke-miterlimit:4;stroke-dasharray:none;stroke-opacity:1"
         id="path4167" />
      <path
         d="m 180.15121,552.92256 18.36182,0 q 3.82416,0 6.42226,0.96334 2.59809,0.96334 4.17446,2.53971 1.60557,1.57637 2.27699,3.59062 0.70061,2.01426 0.70061,4.14528 0,1.34283 -0.29193,2.59809 -0.26272,1.25526 -0.87576,2.36456 -0.61303,1.08011 -1.57637,2.01425 -0.96334,0.90496 -2.33537,1.57638 1.78072,0.67141 3.00679,1.75152 1.25526,1.05092 2.01425,2.33537 0.78819,1.28445 1.13849,2.71486 0.35031,1.43041 0.35031,2.83163 0,2.2186 -0.759,4.4372 -0.7298,2.2186 -2.42294,3.99931 -1.66395,1.78072 -4.37881,2.89002 -2.68567,1.1093 -6.59741,1.1093 l -19.20839,0 0,-41.86144 z m 19.61708,34.32988 q 1.63476,0 2.71486,-0.43788 1.08011,-0.46707 1.69314,-1.16768 0.64223,-0.70061 0.90496,-1.57638 0.26273,-0.87576 0.26273,-1.72233 0,-1.02172 -0.32112,-1.98506 -0.29192,-0.99253 -1.1093,-1.75152 -0.81737,-0.759 -2.21859,-1.22607 -1.40122,-0.46707 -3.59063,-0.46707 l -9.86692,0 0,10.33399 11.53087,0 z m -2.2186,-17.86555 q 3.21113,0 4.75831,-1.22607 1.57637,-1.25526 1.57637,-3.26951 0,-0.78819 -0.20434,-1.57637 -0.20435,-0.78819 -0.78819,-1.43041 -0.55465,-0.64223 -1.57637,-1.02173 -1.02172,-0.40869 -2.68567,-0.40869 l -10.39238,0 0,8.93278 9.31227,0 z"
         style="font-style:normal;font-variant:normal;font-weight:bold;font-stretch:normal;font-size:59.78537369px;font-family:Overpass;-inkscape-font-specification:'Overpass Bold';fill:#101010;fill-opacity:1;stroke:#101010;stroke-width:2;stroke-miterlimit:4;stroke-dasharray:none;stroke-opacity:1"
         id="path4169" />
      <path
         d="m 250.88362,594.784 -3.24032,-8.67005 -16.14322,0 -3.21113,8.67005 -8.67004,0 16.02645,-41.86144 7.88186,0 16.02645,41.86144 -8.67005,0 z m -9.98369,-26.9151 q -0.32111,-0.75899 -0.70061,-1.80991 -0.3503,-1.05091 -0.61303,-1.95587 -0.23354,0.90496 -0.61304,1.95587 -0.37949,1.05092 -0.70061,1.80991 l -4.14527,10.88865 10.88864,0 -4.11608,-10.88865 z"
         style="font-style:normal;font-variant:normal;font-weight:bold;font-stretch:normal;font-size:59.78537369px;font-family:Overpass;-inkscape-font-specification:'Overpass Bold';fill:#101010;fill-opacity:1;stroke:#101010;stroke-width:2;stroke-miterlimit:4;stroke-dasharray:none;stroke-opacity:1"
         id="path4171" />
      <path
         d="m 287.22775,564.30747 q -0.3795,-0.93415 -1.02172,-1.75153 -0.64223,-0.81737 -1.54718,-1.40122 -0.87577,-0.61303 -2.04345,-0.93414 -1.13849,-0.35031 -2.53971,-0.35031 -2.62729,0 -4.11608,1.05092 -1.45961,1.05091 -1.45961,2.9484 0,1.25526 0.93415,2.10183 0.93415,0.84657 2.45213,1.54718 1.51799,0.67141 3.44467,1.28445 1.95587,0.61303 3.99931,1.37203 2.04345,0.7298 3.97013,1.75152 1.95586,0.99253 3.47385,2.48133 1.51799,1.4596 2.45214,3.50305 0.93414,2.01425 0.93414,4.84588 0,3.06517 -1.16768,5.42973 -1.16768,2.36456 -3.21113,3.99931 -2.01425,1.63476 -4.7875,2.48133 -2.77325,0.84657 -5.98437,0.84657 -2.9484,0 -5.51731,-0.78819 -2.5689,-0.81738 -4.67073,-2.30617 -2.07264,-1.4888 -3.61982,-3.61982 -1.54718,-2.13102 -2.45213,-4.7875 l 7.3564,-2.74406 q 0.67142,1.45961 1.60557,2.68568 0.96333,1.19687 2.13102,2.07263 1.16768,0.84657 2.51052,1.34284 1.37202,0.46707 2.9192,0.46707 1.51799,0 2.74406,-0.32111 1.25526,-0.32111 2.13102,-0.96334 0.90496,-0.64222 1.37203,-1.57637 0.49626,-0.96334 0.49626,-2.2186 0,-1.51799 -0.93414,-2.53971 -0.93415,-1.05091 -2.45214,-1.80991 -1.51798,-0.78818 -3.47385,-1.40122 -1.92668,-0.64222 -3.97013,-1.34283 -2.01425,-0.70061 -3.97012,-1.63476 -1.92668,-0.93415 -3.44466,-2.30617 -1.51799,-1.37203 -2.45214,-3.29871 -0.93414,-1.92668 -0.93414,-4.67073 0,-2.36456 0.93414,-4.4372 0.96334,-2.10183 2.77325,-3.6782 1.80991,-1.57637 4.43719,-2.48133 2.62729,-0.93414 6.01357,-0.93414 2.83163,0 5.10862,0.7298 2.30617,0.7298 4.05769,2.04345 1.75153,1.28445 2.9484,3.06516 1.19688,1.75153 1.80991,3.85336 l -7.23963,2.39375 z"
         style="font-style:normal;font-variant:normal;font-weight:bold;font-stretch:normal;font-size:59.78537369px;font-family:Overpass;-inkscape-font-specification:'Overpass Bold';fill:#101010;fill-opacity:1;stroke:#101010;stroke-width:2;stroke-miterlimit:4;stroke-dasharray:none;stroke-opacity:1"
         id="path4173" />
      <path
         d="m 333.20528,594.784 -3.24032,-8.67005 -16.14322,0 -3.21113,8.67005 -8.67005,0 16.02645,-41.86144 7.88186,0 16.02645,41.86144 -8.67004,0 z m -9.98369,-26.9151 q -0.32112,-0.75899 -0.70061,-1.80991 -0.35031,-1.05091 -0.61304,-1.95587 -0.23353,0.90496 -0.61303,1.95587 -0.3795,1.05092 -0.70061,1.80991 l -4.14528,10.88865 10.88865,0 -4.11608,-10.88865 z"
         style="font-style:normal;font-variant:normal;font-weight:bold;font-stretch:normal;font-size:59.78537369px;font-family:Overpass;-inkscape-font-specification:'Overpass Bold';fill:#101010;fill-opacity:1;stroke:#101010;stroke-width:2;stroke-miterlimit:4;stroke-dasharray:none;stroke-opacity:1"
         id="path4175" />
      <path
         d="m 375.65055,594.784 -16.61029,-24.40458 q -0.40869,-0.61303 -0.90496,-1.4888 -0.46707,-0.90495 -0.81738,-1.66394 0.0876,0.67141 0.11677,1.57637 0.0584,0.90495 0.0584,1.57637 l 0,24.40458 -8.02783,0 0,-41.86144 7.58994,0 16.20161,24.11265 q 0.37949,0.58385 0.87576,1.45961 0.49626,0.87576 0.87576,1.69314 -0.0876,-0.84657 -0.14596,-1.69314 -0.0292,-0.87576 -0.0292,-1.45961 l 0,-24.11265 7.99863,0 0,41.86144 -7.18125,0 z"
         style="font-style:normal;font-variant:normal;font-weight:bold;font-stretch:normal;font-size:59.78537369px;font-family:Overpass;-inkscape-font-specification:'Overpass Bold';fill:#101010;fill-opacity:1;stroke:#101010;stroke-width:2;stroke-miterlimit:4;stroke-dasharray:none;stroke-opacity:1"
         id="path4177" />
      <path
         d="m 395.41359,595.5138 q -1.08011,0 -2.01425,-0.3795 -0.90496,-0.3795 -1.57637,-1.02172 -0.67142,-0.67142 -1.05092,-1.57637 -0.3795,-0.90496 -0.3795,-1.92668 0,-1.05092 0.3795,-1.95587 0.3795,-0.90495 1.05092,-1.57637 0.67141,-0.67142 1.57637,-1.05092 0.93414,-0.37949 2.01425,-0.37949 1.08011,0 1.98506,0.37949 0.93415,0.3795 1.60557,1.05092 0.70061,0.67142 1.0801,1.57637 0.40869,0.90495 0.40869,1.95587 0,1.02172 -0.40869,1.92668 -0.37949,0.90495 -1.0801,1.57637 -0.67142,0.64222 -1.60557,1.02172 -0.90495,0.3795 -1.98506,0.3795 z"
         style="font-style:normal;font-variant:normal;font-weight:bold;font-stretch:normal;font-size:59.78537369px;font-family:Overpass;-inkscape-font-specification:'Overpass Bold';fill:#101010;fill-opacity:1;stroke:#101010;stroke-width:2;stroke-miterlimit:4;stroke-dasharray:none;stroke-opacity:1"
         id="path4179" />
    </g>
  </g>
</svg>
