<?xml version="1.0" encoding="UTF-8" standalone="no"?>
<!-- Created with Inkscape (http://www.inkscape.org/) -->

<svg
   xmlns:dc="http://purl.org/dc/elements/1.1/"
   xmlns:cc="http://creativecommons.org/ns#"
   xmlns:rdf="http://www.w3.org/1999/02/22-rdf-syntax-ns#"
   xmlns:svg="http://www.w3.org/2000/svg"
   xmlns="http://www.w3.org/2000/svg"
   xmlns:sodipodi="http://sodipodi.sourceforge.net/DTD/sodipodi-0.dtd"
   xmlns:inkscape="http://www.inkscape.org/namespaces/inkscape"
   width="420"
   height="60"
   viewBox="0 0 420 60.000003"
   id="svg2"
   version="1.1"
   inkscape:version="0.91 r13725"
   sodipodi:docname="SANREMEMBER.svg"
   inkscape:export-filename="/home/sanremember/Images/Wallpaper/Arch-Space-Emblem.png"
   inkscape:export-xdpi="90"
   inkscape:export-ydpi="90">
  <defs
     id="defs4">
    <clipPath
       clipPathUnits="userSpaceOnUse"
       id="clipPath3351">
      <rect
         style="fill:#0000ff;stroke:none"
         id="rect3353"
         width="1024"
         height="600"
         x="0"
         y="452.36215" />
    </clipPath>
    <linearGradient
       gradientUnits="userSpaceOnUse"
       id="path1082_2_"
       y2="129.3468"
       x2="112.49853"
       y1="6.1372099"
       x1="112.49854"
       gradientTransform="translate(287,-83)">
      <stop
         id="stop193"
         offset="0"
         style="stop-color:#ffffff;stop-opacity:0" />
      <stop
         id="stop195"
         offset="1"
         style="stop-color:#ffffff;stop-opacity:0.27450982;" />
      <midPointStop
         id="midPointStop197"
         style="stop-color:#FFFFFF"
         offset="0" />
      <midPointStop
         id="midPointStop199"
         style="stop-color:#FFFFFF"
         offset="0.5" />
      <midPointStop
         id="midPointStop201"
         style="stop-color:#000000"
         offset="1" />
    </linearGradient>
  </defs>
  <sodipodi:namedview
     id="base"
     pagecolor="#ffffff"
     bordercolor="#666666"
     borderopacity="1.0"
     inkscape:pageopacity="0.0"
     inkscape:pageshadow="2"
     inkscape:zoom="1.3785714"
     inkscape:cx="210"
     inkscape:cy="30"
     inkscape:document-units="px"
     inkscape:current-layer="layer3"
     showgrid="false"
     units="px"
     inkscape:window-width="1024"
     inkscape:window-height="561"
     inkscape:window-x="0"
     inkscape:window-y="0"
     inkscape:window-maximized="1"
     showguides="false">
    <inkscape:grid
       type="xygrid"
       id="grid3347" />
  </sodipodi:namedview>
  <metadata
     id="metadata7">
    <rdf:RDF>
      <cc:Work
         rdf:about="">
        <dc:format>image/svg+xml</dc:format>
        <dc:type
           rdf:resource="http://purl.org/dc/dcmitype/StillImage" />
        <dc:title />
      </cc:Work>
    </rdf:RDF>
  </metadata>
  <g
     inkscape:groupmode="layer"
     id="layer3"
     inkscape:label="SANREMEMBER"
     style="display:inline"
     transform="translate(0,-540.00001)">
    <path
       style="font-style:normal;font-variant:normal;font-weight:bold;font-stretch:normal;font-size:59.78537369px;line-height:125%;font-family:Overpass;-inkscape-font-specification:'Overpass Bold';text-align:start;letter-spacing:0px;word-spacing:0px;writing-mode:lr-tb;text-anchor:start;fill:#101010;fill-opacity:1;stroke:none;stroke-width:2;stroke-linecap:butt;stroke-linejoin:miter;stroke-miterlimit:4;stroke-dasharray:none;stroke-opacity:1"
       d="m 15.789062,8.2109375 0,1 0,42.5781245 10.140626,0 0,-11.021484 6.65039,-8.08789 10.417969,19.109374 11.791015,0 -15.36914,-27.566406 13.201172,-16.0117185 -12.210938,0 -14.480468,17.9941405 0,-17.9941405 -10.140626,0 z m 44.085938,0 0,1 0,42.5781245 32.035156,0 0,-9.595703 -21.894531,0 0,-8.033203 12.136719,0 0,-9.595703 -12.136719,0 0,-6.728515 20.630859,0 0,-9.6250005 -30.771484,0 z m 38.794922,0 0,1 0,42.5781245 20.337888,0 c 2.71697,0 5.05655,-0.376248 7.01563,-1.173828 l 0.004,-0.002 c 1.924,-0.77615 3.52153,-1.806395 4.75196,-3.103515 l 0.002,-0.002 c 1.22758,-1.274269 2.12421,-2.730023 2.66211,-4.339843 0.54203,-1.56503 0.81836,-3.147899 0.81836,-4.730469 0,-1.01151 -0.12717,-2.030744 -0.38086,-3.052734 -0.25969,-1.04609 -0.68465,-2.04166 -1.26367,-2.97461 -0.5698,-0.95004 -1.32284,-1.803234 -2.23438,-2.558594 -0.50109,-0.434689 -1.1926,-0.702295 -1.80273,-1.041015 0.38011,-0.26249 0.83275,-0.471818 1.1582,-0.773438 l 0.006,-0.0059 0.006,-0.0059 c 0.70857,-0.67786 1.30102,-1.42042 1.76367,-2.22461 l 0.002,-0.0039 0.004,-0.0059 c 0.45796,-0.81755 0.78351,-1.693945 0.98047,-2.615235 0.21292,-0.90589 0.32227,-1.841984 0.32227,-2.802734 0,-1.5201 -0.25597,-3.00689 -0.76172,-4.443359 -0.50195,-1.48198 -1.35874,-2.811292 -2.53321,-3.951172 l -0.004,-0.002 c -1.181,-1.164099 -2.71272,-2.0728164 -4.5586,-2.7480464 -1.8923,-0.6922199 -4.15895,-1.0175781 -6.80859,-1.0175781 l -19.486328,0 z m 42.908198,0 0,1 0,42.5781245 32.03711,0 0,-9.595703 -21.89453,0 0,-8.033203 12.13672,0 0,-9.595703 -12.13672,0 0,-6.728515 20.63086,0 0,-9.6250005 -30.77344,0 z m 38.79493,0 0,1 0,42.5781245 20.33984,0 c 2.71698,0 5.05654,-0.376248 7.01563,-1.173828 l 0.004,-0.002 c 1.92398,-0.77615 3.52153,-1.806385 4.75196,-3.103515 l 0.002,-0.002 c 1.22758,-1.274269 2.12422,-2.730013 2.66211,-4.339843 0.54205,-1.56504 0.81836,-3.147899 0.81836,-4.730469 0,-1.01291 -0.12942,-2.031994 -0.38282,-3.052734 -0.25936,-1.04485 -0.68213,-2.04074 -1.26171,-2.97461 -0.56981,-0.95003 -1.32282,-1.803234 -2.23438,-2.558594 -0.50119,-0.434779 -1.19245,-0.702475 -1.80273,-1.041015 0.38031,-0.26235 0.83259,-0.471668 1.1582,-0.773438 l 0.006,-0.0059 0.006,-0.0059 c 0.70858,-0.67786 1.30102,-1.42041 1.76367,-2.22461 l 0.002,-0.0039 0.004,-0.0059 c 0.45797,-0.81756 0.78351,-1.693945 0.98047,-2.615235 0.21292,-0.9059 0.32226,-1.841994 0.32226,-2.802734 0,-1.5201 -0.25596,-3.00689 -0.76172,-4.443359 -0.50193,-1.48199 -1.35874,-2.811292 -2.5332,-3.951172 l -0.004,-0.002 c -1.181,-1.164099 -2.71272,-2.0728164 -4.5586,-2.7480464 -1.89231,-0.6922199 -4.15896,-1.0175781 -6.80859,-1.0175781 l -19.48828,0 z m 56.18554,0 -0.24609,0.6386719 -16.66406,42.9394526 10.88281,0 3.23437,-8.611328 14.86719,0 3.26172,8.611328 10.88086,0 -16.91016,-43.5781245 -9.30664,0 z m 45.88868,0 c -2.36036,0 -4.48757,0.3090388 -6.375,0.9492187 -1.8589,0.61172 -3.46167,1.4609068 -4.78516,2.5605468 -1.3157,1.09318 -2.34634,2.390741 -3.05664,3.869141 l 0,0.0039 -0.002,0.002 c -0.68991,1.46028 -1.03516,3.037853 -1.03516,4.689453 0,1.87556 0.33473,3.534413 1.04883,4.939453 0.6827,1.34323 1.58973,2.509287 2.70703,3.472657 1.09251,0.94199 2.32967,1.730874 3.70117,2.365234 l 0.002,0 0.004,0.002 c 1.34453,0.6126 2.70926,1.149325 4.0957,1.609375 l 0.002,0 0.002,0.002 c 1.37439,0.44952 2.71033,0.879056 4.00586,1.291016 l 0.008,0.002 0.008,0.0039 c 1.26797,0.37913 2.38138,0.808453 3.33985,1.283203 l 0.006,0.002 0.008,0.0039 c 0.92893,0.44308 1.64132,0.954488 2.16602,1.517578 l 0.008,0.0059 0.004,0.0039 c 0.45606,0.47587 0.66407,0.991747 0.66407,1.748047 0,0.66528 -0.13391,1.19896 -0.38086,1.65625 l -0.002,0.0059 -0.002,0.0059 c -0.23408,0.44661 -0.56949,0.820581 -1.05664,1.150391 l -0.008,0.0039 -0.008,0.0039 c -0.46796,0.32738 -1.06344,0.593551 -1.80859,0.775391 l -0.004,0 -0.002,0 c -0.72908,0.18216 -1.56804,0.279297 -2.51953,0.279297 -0.93785,0 -1.80614,-0.135728 -2.61914,-0.398438 -0.81167,-0.28737 -1.566,-0.671213 -2.27148,-1.158203 -0.70674,-0.5065 -1.35258,-1.106707 -1.94336,-1.804687 -0.57692,-0.72339 -1.0761,-1.51393 -1.49414,-2.38086 l -0.39063,-0.808593 -9.19531,3.269531 0.33789,0.943359 c 0.63954,1.79095 1.51219,3.419791 2.61523,4.869141 1.10086,1.44645 2.39609,2.681892 3.875,3.695312 l 0.002,0.002 0.002,0.002 c 1.49713,1.011639 3.1596,1.79343 4.97266,2.34375 l 0.006,0.002 0.004,0 c 1.8236,0.53375 3.77238,0.796875 5.83594,0.796875 2.23892,0 4.34183,-0.280533 6.30273,-0.851563 1.96286,-0.57161 3.68765,-1.418768 5.14844,-2.548828 l 0.006,-0.0039 c 1.48155,-1.13167 2.6608,-2.533808 3.50977,-4.173828 0.86479,-1.6706 1.28711,-3.578059 1.28711,-5.673829 0,-1.927249 -0.33381,-3.634363 -1.04102,-5.089843 -0.6777,-1.41268 -1.57871,-2.64119 -2.69141,-3.66211 0,0 0,-0.002 0,-0.002 -1.09113,-1.01949 -2.34097,-1.869782 -3.73437,-2.544922 -0.002,-7.7e-4 -0.004,-0.0029 -0.006,-0.0039 -1.32614,-0.66998 -2.69182,-1.245049 -4.09766,-1.724609 l -0.0117,-0.0039 c -1.38065,-0.488999 -2.73385,-0.931935 -4.05859,-1.328124 l -0.004,-0.0039 c -1.25943,-0.38242 -2.37865,-0.778743 -3.35351,-1.189453 l -0.004,-0.002 c -0.94962,-0.41854 -1.68608,-0.868789 -2.21289,-1.324219 -0.4412,-0.38144 -0.59375,-0.719122 -0.59375,-1.263672 0,-0.94431 0.28663,-1.488843 1.03125,-2.001953 0.7733,-0.51942 1.94822,-0.83789 3.58203,-0.83789 0.86136,0 1.61796,0.101942 2.27539,0.294921 l 0.0137,0.0059 0.0137,0.0039 c 0.6928,0.18174 1.27463,0.439079 1.75781,0.761719 l 0.0156,0.0098 0.0156,0.0098 c 0.51954,0.31976 0.94931,0.69466 1.30859,1.13086 0.37342,0.453389 0.66466,0.931733 0.88086,1.439453 l 0.35547,0.833984 9.09961,-2.869141 -0.28906,-0.949218 c -0.44196,-1.44551 -1.10022,-2.780475 -1.9668,-3.990235 -0.86734,-1.22935 -1.94048,-2.291548 -3.19922,-3.173828 l -0.004,-0.002 c -1.27251,-0.90982 -2.73669,-1.6108888 -4.375,-2.1054688 -1.63805,-0.5003999 -3.45044,-0.7441406 -5.43164,-0.7441406 l 0,-0.00195 z m 36.99218,0 -0.24609,0.6386719 -16.66406,42.9394526 10.88281,0 3.23242,-8.611328 14.86914,0 3.26172,8.611328 10.88086,0 -16.91016,-43.5781245 -9.30664,0 z m 31.39844,0 0,1 0,42.5781245 10.08203,0 0,-24.285156 16.75391,24.285156 8.75586,0 0,-43.5781245 -10.05274,0 0,24.0332035 -16.36914,-24.0332035 -9.16992,0 z m -242.02734,9.4804685 9.46289,0 c 1.03587,0 1.82211,0.133168 2.33594,0.335938 l 0.0117,0.0059 0.0117,0.0039 c 0.57075,0.20914 0.94465,0.463922 1.17969,0.732422 l 0.008,0.0098 0.008,0.0098 c 0.2922,0.31708 0.46763,0.636987 0.5625,0.998047 0.11624,0.44229 0.17188,0.875377 0.17188,1.310547 0,1.06992 -0.34986,1.790618 -1.20312,2.460938 -0.7744,0.60476 -2.14543,1.005859 -4.17383,1.005859 l -8.375,0 0,-6.873047 z m 81.70507,0 9.4629,0 c 1.03585,0 1.82209,0.133168 2.33593,0.335938 l 0.0117,0.0059 0.0117,0.0039 c 0.57073,0.20914 0.94463,0.463902 1.17969,0.732422 l 0.008,0.0098 0.008,0.0098 c 0.2922,0.31709 0.46761,0.636967 0.5625,0.998047 0.11624,0.44231 0.17188,0.875397 0.17188,1.310547 0,1.06992 -0.34986,1.790618 -1.20313,2.460938 -0.77439,0.60476 -2.14542,1.005859 -4.17383,1.005859 l -8.375,0 0,-6.873047 z m 133.57813,5.730469 c 0.13051,0.33604 0.26737,0.708168 0.38867,0.992187 l 3.62305,9.457032 -8.05078,0 3.63476,-9.419922 0.008,-0.01758 0.006,-0.01758 c 0.12157,-0.2846 0.2598,-0.657271 0.39063,-0.994141 z m -82.88086,0.002 c 0.13027,0.33537 0.26758,0.706705 0.38867,0.990234 l 3.625,9.457032 -8.05078,0 3.63477,-9.419922 0.008,-0.01758 0.006,-0.01758 c 0.12129,-0.28393 0.25818,-0.656238 0.38867,-0.992188 z m -132.40234,10.621094 8.93359,0 c 1.39982,0 2.50974,0.151339 3.30274,0.412109 0.84176,0.27682 1.45404,0.627543 1.86914,1.007813 0.43216,0.3959 0.69117,0.808069 0.83398,1.287109 l 0.006,0.01758 0.006,0.01758 c 0.18158,0.53743 0.27148,1.080941 0.27148,1.650391 0,0.45438 -0.0721,0.924752 -0.22265,1.419922 -0.1323,0.43508 -0.35045,0.815141 -0.68555,1.175781 l -0.008,0.0098 -0.008,0.0078 c -0.28847,0.32525 -0.72472,0.631755 -1.3418,0.896485 -0.56347,0.22332 -1.34471,0.361328 -2.34766,0.361328 l -10.60937,0 0,-8.263672 z m 81.70507,0 8.9336,0 c 1.39982,0 2.50976,0.151339 3.30273,0.412109 0.84179,0.27682 1.45404,0.627543 1.86914,1.007813 0.43216,0.39591 0.69118,0.808079 0.83399,1.287109 l 0.006,0.01758 0.006,0.01758 c 0.18159,0.53741 0.27148,1.080931 0.27148,1.650391 0,0.45438 -0.0721,0.924752 -0.22266,1.419922 -0.1323,0.43509 -0.35045,0.815131 -0.68554,1.175781 l -0.008,0.0098 -0.008,0.0078 c -0.28848,0.32526 -0.72472,0.631755 -1.34179,0.896485 -0.56345,0.22332 -1.34472,0.361328 -2.34766,0.361328 l -10.60938,0 0,-8.263672 z m 207.58204,5.943359 c -0.84053,0 -1.64814,0.148519 -2.39844,0.449219 l -0.006,0.002 -0.006,0.002 c -0.71982,0.29781 -1.36486,0.721773 -1.9082,1.257813 -0.54356,0.53626 -0.97236,1.173799 -1.27539,1.886719 -0.30949,0.728079 -0.46094,1.515301 -0.46094,2.332031 0,0.80085 0.1527,1.579557 0.46094,2.304687 0.30303,0.71292 0.73183,1.350459 1.27539,1.886719 l 0.008,0.0078 0.01,0.0078 c 0.54333,0.51274 1.18112,0.917398 1.89062,1.210938 l 0.006,0.002 0.006,0.002 c 0.75032,0.30072 1.55792,0.449218 2.39844,0.449218 0.83772,0 1.63798,-0.148281 2.37304,-0.451171 0.7281,-0.29236 1.38022,-0.696221 1.92774,-1.212891 l 0.002,0 c 0.56607,-0.53519 1.00676,-1.177208 1.3125,-1.892578 0.32896,-0.72425 0.49805,-1.507603 0.49805,-2.314453 0,-0.82238 -0.16768,-1.614377 -0.49805,-2.341797 -0.30409,-0.71149 -0.74301,-1.349383 -1.30469,-1.882813 -0.54604,-0.53681 -1.20237,-0.958676 -1.9375,-1.253906 -0.73504,-0.30287 -1.53531,-0.451172 -2.37304,-0.451172 z"
       transform="translate(-1.525879e-5,540.00001)"
       id="KEBEBASAN"
       sodipodi:insensitive="true"
       inkscape:connector-curvature="0" />
  </g>
</svg>
