<?xml version="1.0" encoding="UTF-8" standalone="no"?>
<!-- Created with Inkscape (http://www.inkscape.org/) -->

<svg
   xmlns:dc="http://purl.org/dc/elements/1.1/"
   xmlns:cc="http://creativecommons.org/ns#"
   xmlns:rdf="http://www.w3.org/1999/02/22-rdf-syntax-ns#"
   xmlns:svg="http://www.w3.org/2000/svg"
   xmlns="http://www.w3.org/2000/svg"
   xmlns:sodipodi="http://sodipodi.sourceforge.net/DTD/sodipodi-0.dtd"
   xmlns:inkscape="http://www.inkscape.org/namespaces/inkscape"
   width="420"
   height="60"
   viewBox="0 0 420 60.000003"
   id="svg2"
   version="1.1"
   inkscape:version="0.91 r13725"
   sodipodi:docname="SANREMEMBER.svg"
   inkscape:export-filename="/home/sanremember/Images/Wallpaper/Arch-Space-Emblem.png"
   inkscape:export-xdpi="90"
   inkscape:export-ydpi="90">
  <defs
     id="defs4">
    <clipPath
       clipPathUnits="userSpaceOnUse"
       id="clipPath3351">
      <rect
         style="fill:#0000ff;stroke:none"
         id="rect3353"
         width="1024"
         height="600"
         x="0"
         y="452.36215" />
    </clipPath>
    <linearGradient
       gradientUnits="userSpaceOnUse"
       id="path1082_2_"
       y2="129.3468"
       x2="112.49853"
       y1="6.1372099"
       x1="112.49854"
       gradientTransform="translate(287,-83)">
      <stop
         id="stop193"
         offset="0"
         style="stop-color:#ffffff;stop-opacity:0" />
      <stop
         id="stop195"
         offset="1"
         style="stop-color:#ffffff;stop-opacity:0.27450982;" />
      <midPointStop
         id="midPointStop197"
         style="stop-color:#FFFFFF"
         offset="0" />
      <midPointStop
         id="midPointStop199"
         style="stop-color:#FFFFFF"
         offset="0.5" />
      <midPointStop
         id="midPointStop201"
         style="stop-color:#000000"
         offset="1" />
    </linearGradient>
  </defs>
  <sodipodi:namedview
     id="base"
     pagecolor="#ffffff"
     bordercolor="#666666"
     borderopacity="1.0"
     inkscape:pageopacity="0.0"
     inkscape:pageshadow="2"
     inkscape:zoom="1.3785714"
     inkscape:cx="210"
     inkscape:cy="30.000001"
     inkscape:document-units="px"
     inkscape:current-layer="layer3"
     showgrid="false"
     units="px"
     inkscape:window-width="1024"
     inkscape:window-height="561"
     inkscape:window-x="0"
     inkscape:window-y="0"
     inkscape:window-maximized="1"
     showguides="false">
    <inkscape:grid
       type="xygrid"
       id="grid3347" />
  </sodipodi:namedview>
  <metadata
     id="metadata7">
    <rdf:RDF>
      <cc:Work
         rdf:about="">
        <dc:format>image/svg+xml</dc:format>
        <dc:type
           rdf:resource="http://purl.org/dc/dcmitype/StillImage" />
        <dc:title />
      </cc:Work>
    </rdf:RDF>
  </metadata>
  <g
     inkscape:groupmode="layer"
     id="layer3"
     inkscape:label="SANREMEMBER"
     style="display:inline"
     transform="translate(0,-540.00001)">
    <path
       style="font-style:normal;font-variant:normal;font-weight:bold;font-stretch:normal;font-size:59.78537369px;line-height:125%;font-family:Overpass;-inkscape-font-specification:'Overpass Bold';text-align:start;letter-spacing:0px;word-spacing:0px;writing-mode:lr-tb;text-anchor:start;fill:#101010;fill-opacity:1;stroke:none;stroke-width:2;stroke-linecap:butt;stroke-linejoin:miter;stroke-miterlimit:4;stroke-dasharray:none;stroke-opacity:1"
       d="M 282.44727 7.5 C 280.08374 7.5 277.95261 7.821375 276.0625 8.484375 C 274.20137 9.117855 272.5957 9.9985857 271.27344 11.134766 C 269.95896 12.264236 268.93395 13.600387 268.22656 15.123047 L 268.22461 15.126953 L 268.22266 15.128906 C 267.53571 16.632606 267.19336 18.254335 267.19336 19.953125 C 267.19336 21.884805 267.52437 23.588473 268.23438 25.033203 C 268.91458 26.417293 269.81948 27.618081 270.93555 28.613281 C 272.02718 29.586691 273.26578 30.403847 274.63867 31.060547 L 274.64062 31.0625 L 274.64453 31.0625 C 275.98918 31.69609 277.3545 32.252326 278.74219 32.728516 L 278.74414 32.730469 L 278.74609 32.730469 C 280.121 33.195539 281.45685 33.638563 282.75195 34.064453 L 282.75977 34.068359 L 282.76953 34.070312 C 284.03596 34.461922 285.1474 34.907658 286.10547 35.398438 L 286.11133 35.400391 L 286.11719 35.404297 C 287.0452 35.862067 287.76053 36.390179 288.28711 36.974609 L 288.29102 36.978516 L 288.29688 36.984375 C 288.75608 37.479895 288.97266 38.031495 288.97266 38.828125 C 288.97266 39.525455 288.83679 40.087969 288.58594 40.568359 L 288.58203 40.574219 L 288.57812 40.582031 C 288.34029 41.051341 288.00203 41.4407 287.51562 41.78125 L 287.50977 41.785156 L 287.50391 41.789062 C 287.03614 42.127482 286.44192 42.400441 285.69922 42.587891 L 285.69531 42.587891 L 285.69336 42.587891 C 284.96745 42.775451 284.13133 42.875 283.18164 42.875 C 282.24601 42.875 281.38173 42.737287 280.57227 42.466797 C 279.7651 42.171267 279.01477 41.775427 278.31055 41.273438 L 278.30859 41.271484 C 277.59755 40.745084 276.94676 40.121078 276.35156 39.392578 C 275.77563 38.644598 275.27748 37.826407 274.85938 36.929688 L 274.4707 36.095703 L 265.28125 39.476562 L 265.60156 40.402344 C 266.23939 42.249534 267.10999 43.927808 268.21094 45.423828 C 269.30984 46.917068 270.60297 48.195991 272.08203 49.244141 L 272.08398 49.246094 L 272.08789 49.248047 C 273.58501 50.294257 275.249 51.101995 277.06445 51.671875 L 277.06836 51.673828 L 277.07422 51.675781 C 278.89987 52.228401 280.85101 52.501953 282.91797 52.501953 C 285.16022 52.501953 287.26747 52.208367 289.23047 51.617188 C 291.19563 51.025368 292.92101 50.148099 294.38086 48.980469 C 295.86392 47.809969 297.04181 46.361772 297.88867 44.669922 C 298.74975 42.949652 299.16992 40.988528 299.16992 38.830078 C 299.16992 36.843958 298.83863 35.089117 298.13477 33.591797 C 297.45953 32.136577 296.5614 30.86753 295.44922 29.8125 C 294.35851 28.75855 293.10938 27.878337 291.71484 27.179688 C 290.38663 26.485508 289.01926 25.891221 287.61133 25.394531 L 287.59961 25.390625 C 286.21856 24.884765 284.8642 24.427418 283.53906 24.017578 L 283.53516 24.015625 C 282.27675 23.620455 281.16012 23.209796 280.18555 22.785156 L 280.18164 22.783203 C 279.23311 22.350863 278.49658 21.884019 277.96875 21.412109 C 277.52535 21.015679 277.36328 20.650902 277.36328 20.070312 C 277.36328 19.076813 277.66188 18.492821 278.4043 17.962891 C 279.17746 17.424461 280.34511 17.097656 281.97656 17.097656 C 282.83504 17.097656 283.58731 17.203554 284.24219 17.402344 L 284.25781 17.40625 L 284.27148 17.410156 C 284.96135 17.597326 285.54006 17.861503 286.02344 18.195312 L 286.03906 18.207031 L 286.05469 18.216797 C 286.57275 18.546547 287.00388 18.935202 287.36523 19.388672 C 287.74054 19.859922 288.03587 20.357219 288.25391 20.886719 L 288.60547 21.744141 L 297.70117 18.775391 L 297.42578 17.84375 C 296.98636 16.35739 296.33249 14.984121 295.4707 13.738281 C 294.60308 12.464761 293.52851 11.362736 292.26367 10.447266 C 290.99255 9.5080157 289.52848 8.7850675 287.89062 8.2734375 C 286.24871 7.7542575 284.43249 7.5019531 282.44727 7.5019531 L 282.44727 7.5 z M 15.789062 8.1953125 L 15.789062 9.1953125 L 15.789062 51.773438 L 25.929688 51.773438 L 25.929688 40.751953 L 32.580078 32.664062 L 42.998047 51.773438 L 54.789062 51.773438 L 39.419922 24.207031 L 52.621094 8.1953125 L 40.410156 8.1953125 L 25.929688 26.189453 L 25.929688 8.1953125 L 15.789062 8.1953125 z M 59.875 8.1953125 L 59.875 9.1953125 L 59.875 51.773438 L 91.910156 51.773438 L 91.910156 42.177734 L 70.015625 42.177734 L 70.015625 34.144531 L 82.154297 34.144531 L 82.154297 24.548828 L 70.015625 24.548828 L 70.015625 17.820312 L 90.646484 17.820312 L 90.646484 8.1953125 L 59.875 8.1953125 z M 98.669922 8.1953125 L 98.669922 9.1953125 L 98.669922 51.773438 L 119.00781 51.773438 C 121.72478 51.773438 124.06435 51.397189 126.02344 50.599609 L 126.02734 50.597656 C 127.95077 49.821736 129.5485 48.793604 130.7793 47.496094 L 130.78125 47.494141 C 132.00921 46.219461 132.90554 44.761914 133.44336 43.152344 C 133.98539 41.587314 134.26172 40.004455 134.26172 38.421875 C 134.26172 37.410365 134.13455 36.391141 133.88086 35.369141 C 133.6211 34.322731 133.19585 33.328844 132.61719 32.396484 C 132.04773 31.447014 131.29506 30.591877 130.38281 29.835938 C 129.8819 29.401398 129.1919 29.133552 128.58203 28.794922 C 128.96152 28.533222 129.413 28.324897 129.73828 28.023438 L 129.74414 28.017578 L 129.75 28.011719 C 130.45933 27.333129 131.05141 26.588656 131.51367 25.785156 L 131.51562 25.78125 L 131.51953 25.775391 C 131.97749 24.957841 132.30304 24.081446 132.5 23.160156 C 132.71292 22.254266 132.82227 21.318182 132.82227 20.357422 C 132.82227 18.837312 132.5663 17.350532 132.06055 15.914062 C 131.5586 14.432083 130.70181 13.102781 129.52734 11.962891 L 129.52344 11.960938 C 128.34244 10.796818 126.81072 9.8881206 124.96484 9.2128906 C 123.07254 8.5206707 120.80589 8.1953125 118.15625 8.1953125 L 98.669922 8.1953125 z M 141.57812 8.1953125 L 141.57812 9.1953125 L 141.57812 51.773438 L 173.61523 51.773438 L 173.61523 42.177734 L 151.7207 42.177734 L 151.7207 34.144531 L 163.85742 34.144531 L 163.85742 24.548828 L 151.7207 24.548828 L 151.7207 17.820312 L 172.35156 17.820312 L 172.35156 8.1953125 L 141.57812 8.1953125 z M 180.37305 8.1953125 L 180.37305 9.1953125 L 180.37305 51.773438 L 200.71289 51.773438 C 203.42987 51.773438 205.76943 51.397189 207.72852 50.599609 L 207.73242 50.597656 C 209.65584 49.821736 211.25358 48.793604 212.48438 47.496094 L 212.48633 47.494141 C 213.71429 46.219461 214.61064 44.761934 215.14844 43.152344 C 215.69049 41.587304 215.9668 40.004445 215.9668 38.421875 C 215.9668 37.410365 215.83964 36.391141 215.58594 35.369141 C 215.32618 34.322721 214.90093 33.328844 214.32227 32.396484 C 213.7528 31.447024 213.00015 30.591887 212.08789 29.835938 C 211.58648 29.400958 210.89576 29.133572 210.28516 28.794922 C 210.66536 28.533102 211.11754 28.325397 211.44336 28.023438 L 211.44922 28.017578 L 211.45508 28.011719 C 212.16442 27.333129 212.7565 26.588666 213.21875 25.785156 L 213.2207 25.78125 L 213.22461 25.775391 C 213.68258 24.957831 214.00812 24.081436 214.20508 23.160156 C 214.418 22.254256 214.52734 21.318172 214.52734 20.357422 C 214.52734 18.837322 214.27138 17.350532 213.76562 15.914062 C 213.26369 14.432083 212.40688 13.102771 211.23242 11.962891 L 211.22852 11.960938 C 210.04751 10.796818 208.5158 9.8881206 206.66992 9.2128906 C 204.77761 8.5206707 202.51096 8.1953125 199.86133 8.1953125 L 180.37305 8.1953125 z M 236.55859 8.1953125 L 236.3125 8.8339844 L 219.64844 51.773438 L 230.53125 51.773438 L 233.76562 43.162109 L 248.63281 43.162109 L 251.89453 51.773438 L 262.77539 51.773438 L 245.86523 8.1953125 L 236.55859 8.1953125 z M 319.43945 8.1953125 L 319.19336 8.8339844 L 302.5293 51.773438 L 313.41211 51.773438 L 316.64453 43.162109 L 331.51367 43.162109 L 334.77539 51.773438 L 345.65625 51.773438 L 328.74609 8.1953125 L 319.43945 8.1953125 z M 350.83789 8.1953125 L 350.83789 9.1953125 L 350.83789 51.773438 L 360.91992 51.773438 L 360.91992 27.490234 L 377.67383 51.773438 L 386.42969 51.773438 L 386.42969 8.1953125 L 376.37695 8.1953125 L 376.37695 32.228516 L 360.00781 8.1953125 L 350.83789 8.1953125 z M 108.81055 17.675781 L 118.27344 17.675781 C 119.30931 17.675781 120.09555 17.808949 120.60938 18.011719 L 120.62109 18.017578 L 120.63281 18.021484 C 121.20356 18.230634 121.57746 18.485396 121.8125 18.753906 L 121.82031 18.763672 L 121.82812 18.773438 C 122.12033 19.090527 122.29576 19.410434 122.39062 19.771484 C 122.5067 20.213184 122.5625 20.648824 122.5625 21.083984 C 122.5625 22.153914 122.21324 22.872179 121.35938 23.542969 C 120.58498 24.147719 119.21395 24.548828 117.18555 24.548828 L 108.81055 24.548828 L 108.81055 17.675781 z M 190.51562 17.675781 L 199.97852 17.675781 C 201.01437 17.675781 201.80061 17.808949 202.31445 18.011719 L 202.32617 18.017578 L 202.33789 18.021484 C 202.90863 18.230634 203.28252 18.485386 203.51758 18.753906 L 203.52539 18.763672 L 203.5332 18.773438 C 203.8254 19.090527 204.00081 19.410414 204.0957 19.771484 C 204.21178 20.213214 204.26758 20.648834 204.26758 21.083984 C 204.26758 22.153914 203.91832 22.872179 203.06445 23.542969 C 202.29006 24.147719 200.91903 24.548828 198.89062 24.548828 L 190.51562 24.548828 L 190.51562 17.675781 z M 241.21289 23.408203 C 241.34316 23.743583 241.48047 24.114908 241.60156 24.398438 L 245.22656 33.855469 L 237.17578 33.855469 L 240.81055 24.435547 L 240.81836 24.417969 L 240.82422 24.400391 C 240.94551 24.116461 241.0824 23.744163 241.21289 23.408203 z M 324.09375 23.408203 C 324.22402 23.743583 324.36132 24.114898 324.48242 24.398438 L 328.10547 33.855469 L 320.05469 33.855469 L 323.68945 24.435547 L 323.69531 24.419922 L 323.70312 24.400391 C 323.82404 24.117411 323.96261 23.744443 324.09375 23.408203 z M 108.81055 34.029297 L 117.74414 34.029297 C 119.14396 34.029297 120.25388 34.180626 121.04688 34.441406 C 121.88903 34.718346 122.50376 35.069749 122.91797 35.449219 C 123.34925 35.844299 123.60667 36.255548 123.75 36.736328 L 123.75586 36.753906 L 123.76172 36.771484 C 123.94331 37.308934 124.0332 37.852425 124.0332 38.421875 C 124.0332 38.876275 123.9611 39.346647 123.81055 39.841797 C 123.67825 40.276877 123.4601 40.656928 123.125 41.017578 L 123.11719 41.027344 L 123.10938 41.035156 C 122.82 41.361426 122.3833 41.669434 121.76758 41.933594 C 121.20552 42.156344 120.42405 42.292969 119.41992 42.292969 L 108.81055 42.292969 L 108.81055 34.029297 z M 190.51562 34.029297 L 199.44922 34.029297 C 200.84904 34.029297 201.95898 34.180626 202.75195 34.441406 C 203.59373 34.718216 204.20599 35.068949 204.62109 35.449219 C 205.05324 35.845109 205.31227 36.257298 205.45508 36.736328 L 205.46094 36.753906 L 205.4668 36.771484 C 205.64839 37.308914 205.73828 37.852415 205.73828 38.421875 C 205.73828 38.876275 205.66618 39.346647 205.51562 39.841797 C 205.38332 40.276887 205.16517 40.656928 204.83008 41.017578 L 204.82227 41.027344 L 204.81445 41.035156 C 204.52505 41.361446 204.08838 41.669444 203.47266 41.933594 C 202.91061 42.156344 202.12912 42.292969 201.125 42.292969 L 190.51562 42.292969 L 190.51562 34.029297 z M 398.09766 40.699219 C 397.25714 40.699219 396.44954 40.847708 395.69922 41.148438 L 395.69336 41.150391 L 395.6875 41.152344 C 394.96936 41.449454 394.32368 41.871133 393.7793 42.408203 C 393.23573 42.944463 392.80694 43.582002 392.50391 44.294922 C 392.19411 45.023722 392.04297 45.812166 392.04297 46.628906 C 392.04297 47.429756 392.19598 48.207231 392.50391 48.931641 C 392.80694 49.644571 393.23573 50.282099 393.7793 50.818359 L 393.78711 50.826172 L 393.79688 50.833984 C 394.3391 51.345674 394.9763 51.752645 395.6875 52.046875 L 395.69336 52.048828 L 395.69922 52.050781 C 396.44955 52.351521 397.25715 52.5 398.09766 52.5 C 398.93538 52.5 399.73563 52.351738 400.4707 52.048828 C 401.20046 51.755798 401.85204 51.349604 402.39844 50.833984 L 402.40039 50.833984 C 402.96646 50.298804 403.40715 49.656776 403.71289 48.941406 C 404.04152 48.217906 404.21094 47.435756 404.21094 46.628906 C 404.21094 45.806516 404.04359 45.013316 403.71289 44.285156 C 403.4088 43.573656 402.96988 42.935774 402.4082 42.402344 C 401.86113 41.864534 401.20419 41.444951 400.4707 41.150391 C 399.73564 40.847491 398.93538 40.699219 398.09766 40.699219 z "
       transform="translate(-1.525879e-5,540.00001)"
       id="path4142" />
  </g>
</svg>
